# xmcd
#
# Track frame offsets:
#	150
#	17898
#	33712
#	49910
#	67375
#	84232
#	98705
#	116983
#	137270
#	152087
#	171740
#
# Disc length: 2508 seconds
#
# Revision: 2
# Processed by: cddbd v1.5.2PL0 Copyright (c) Steve Scherf et al.
# Submitted via: EZCDAudioConverter 9.0.2.1
#
DISCID=9c09ca0b
DTITLE=Josh Turner - Deep South
DYEAR=2017
DGENRE=Country
TTITLE0=Deep South
TTITLE1=All About You
TTITLE2=Hometown Girl
TTITLE3=Beach Bums
TTITLE4=Southern Drawl
TTITLE5=Where The Girls Are
TTITLE6=Never Had A Reason
TTITLE7=Wonder
TTITLE8=One Like Mine
TTITLE9=Lay Low
TTITLE10=Hawaiian Girl
EXTD=
EXTT0=
EXTT1=
EXTT2=
EXTT3=
EXTT4=
EXTT5=
EXTT6=
EXTT7=
EXTT8=
EXTT9=
EXTT10=
PLAYORDER=
